<svg xmlns="http://www.w3.org/2000/svg" version="1.1" xmlns:xlink="http://www.w3.org/1999/xlink" xmlns:svgjs="http://svgjs.com/svgjs" width="1440" height="560" preserveAspectRatio="none" viewBox="0 0 1440 560"><g mask="url(&quot;#SvgjsMask2072&quot;)" fill="none"><rect width="1440" height="560" x="0" y="0" fill="url(#SvgjsLinearGradient2073)"></rect><path d="M-101.46 356.25L-101.46 356.25" stroke="#132e65" stroke-width="1.5"></path><path d="M-101.46 356.25L-58.99 487.78" stroke="#132e65" stroke-width="1.5"></path><path d="M-101.46 356.25L74.08 371.88" stroke="#132e65" stroke-width="1.5"></path><path d="M-101.46 356.25L55.53 539.06" stroke="#132e65" stroke-width="1.5"></path><path d="M-101.46 356.25L196.77 408.7" stroke="#132e65" stroke-width="1.5"></path><path d="M-101.46 356.25L-63.5 668.71" stroke="#132e65" stroke-width="1.5"></path><path d="M-58.99 487.78L-58.99 487.78" stroke="#132e65" stroke-width="1.5"></path><path d="M-58.99 487.78L55.53 539.06" stroke="#132e65" stroke-width="1.5"></path><path d="M-58.99 487.78L74.08 371.88" stroke="#132e65" stroke-width="1.5"></path><path d="M-58.99 487.78L-63.5 668.71" stroke="#132e65" stroke-width="1.5"></path><path d="M-63.5 668.71L-63.5 668.71" stroke="#132e65" stroke-width="1.5"></path><path d="M-63.5 668.71L39.83 656.64" stroke="#132e65" stroke-width="1.5"></path><path d="M-63.5 668.71L55.53 539.06" stroke="#132e65" stroke-width="1.5"></path><path d="M74.08 371.88L74.08 371.88" stroke="#132e65" stroke-width="1.5"></path><path d="M74.08 371.88L196.77 408.7" stroke="#132e65" stroke-width="1.5"></path><path d="M74.08 371.88L55.53 539.06" stroke="#132e65" stroke-width="1.5"></path><path d="M55.53 539.06L55.53 539.06" stroke="#132e65" stroke-width="1.5"></path><path d="M55.53 539.06L39.83 656.64" stroke="#132e65" stroke-width="1.5"></path><path d="M39.83 656.64L39.83 656.64" stroke="#132e65" stroke-width="1.5"></path><path d="M39.83 656.64L192.37 552.95" stroke="#132e65" stroke-width="1.5"></path><path d="M196.77 408.7L196.77 408.7" stroke="#132e65" stroke-width="1.5"></path><path d="M196.77 408.7L192.37 552.95" stroke="#132e65" stroke-width="1.5"></path><path d="M192.37 552.95L192.37 552.95" stroke="#132e65" stroke-width="1.5"></path><path d="M192.37 552.95L55.53 539.06" stroke="#132e65" stroke-width="1.5"></path><path d="M192.37 552.95L259.94 704.35" stroke="#132e65" stroke-width="1.5"></path><path d="M259.94 704.35L259.94 704.35" stroke="#132e65" stroke-width="1.5"></path><path d="M259.94 704.35L339.87 666.31" stroke="#132e65" stroke-width="1.5"></path><path d="M259.94 704.35L39.83 656.64" stroke="#132e65" stroke-width="1.5"></path><path d="M259.94 704.35L394.27 492.06" stroke="#132e65" stroke-width="1.5"></path><path d="M338.94 379.21L338.94 379.21" stroke="#132e65" stroke-width="1.5"></path><path d="M338.94 379.21L394.27 492.06" stroke="#132e65" stroke-width="1.5"></path><path d="M338.94 379.21L196.77 408.7" stroke="#132e65" stroke-width="1.5"></path><path d="M338.94 379.21L548.77 382.09" stroke="#132e65" stroke-width="1.5"></path><path d="M338.94 379.21L192.37 552.95" stroke="#132e65" stroke-width="1.5"></path><path d="M338.94 379.21L508.61 538.03" stroke="#132e65" stroke-width="1.5"></path><path d="M394.27 492.06L394.27 492.06" stroke="#132e65" stroke-width="1.5"></path><path d="M394.27 492.06L508.61 538.03" stroke="#132e65" stroke-width="1.5"></path><path d="M339.87 666.31L339.87 666.31" stroke="#132e65" stroke-width="1.5"></path><path d="M339.87 666.31L394.27 492.06" stroke="#132e65" stroke-width="1.5"></path><path d="M548.77 382.09L548.77 382.09" stroke="#132e65" stroke-width="1.5"></path><path d="M548.77 382.09L638.67 491.67" stroke="#132e65" stroke-width="1.5"></path><path d="M548.77 382.09L700.23 411.4" stroke="#132e65" stroke-width="1.5"></path><path d="M548.77 382.09L508.61 538.03" stroke="#132e65" stroke-width="1.5"></path><path d="M548.77 382.09L394.27 492.06" stroke="#132e65" stroke-width="1.5"></path><path d="M508.61 538.03L508.61 538.03" stroke="#132e65" stroke-width="1.5"></path><path d="M508.61 538.03L638.67 491.67" stroke="#132e65" stroke-width="1.5"></path><path d="M508.61 538.03L541.7 687.6" stroke="#132e65" stroke-width="1.5"></path><path d="M541.7 687.6L541.7 687.6" stroke="#132e65" stroke-width="1.5"></path><path d="M541.7 687.6L666.02 695.7" stroke="#132e65" stroke-width="1.5"></path><path d="M690.78 208.28L690.78 208.28" stroke="#132e65" stroke-width="1.5"></path><path d="M690.78 208.28L804.49 346.7" stroke="#132e65" stroke-width="1.5"></path><path d="M690.78 208.28L700.23 411.4" stroke="#132e65" stroke-width="1.5"></path><path d="M690.78 208.28L548.77 382.09" stroke="#132e65" stroke-width="1.5"></path><path d="M690.78 208.28L938.42 259.96" stroke="#132e65" stroke-width="1.5"></path><path d="M690.78 208.28L638.67 491.67" stroke="#132e65" stroke-width="1.5"></path><path d="M700.23 411.4L700.23 411.4" stroke="#132e65" stroke-width="1.5"></path><path d="M700.23 411.4L638.67 491.67" stroke="#132e65" stroke-width="1.5"></path><path d="M700.23 411.4L804.49 346.7" stroke="#132e65" stroke-width="1.5"></path><path d="M700.23 411.4L797.84 507.56" stroke="#132e65" stroke-width="1.5"></path><path d="M638.67 491.67L638.67 491.67" stroke="#132e65" stroke-width="1.5"></path><path d="M666.02 695.7L666.02 695.7" stroke="#132e65" stroke-width="1.5"></path><path d="M666.02 695.7L853.15 710.02" stroke="#132e65" stroke-width="1.5"></path><path d="M666.02 695.7L638.67 491.67" stroke="#132e65" stroke-width="1.5"></path><path d="M666.02 695.7L508.61 538.03" stroke="#132e65" stroke-width="1.5"></path><path d="M666.02 695.7L797.84 507.56" stroke="#132e65" stroke-width="1.5"></path><path d="M666.02 695.7L700.23 411.4" stroke="#132e65" stroke-width="1.5"></path><path d="M804.49 346.7L804.49 346.7" stroke="#132e65" stroke-width="1.5"></path><path d="M804.49 346.7L938.42 259.96" stroke="#132e65" stroke-width="1.5"></path><path d="M797.84 507.56L797.84 507.56" stroke="#132e65" stroke-width="1.5"></path><path d="M797.84 507.56L638.67 491.67" stroke="#132e65" stroke-width="1.5"></path><path d="M853.15 710.02L853.15 710.02" stroke="#132e65" stroke-width="1.5"></path><path d="M853.15 710.02L972.35 702.39" stroke="#132e65" stroke-width="1.5"></path><path d="M953.98 56L953.98 56" stroke="#132e65" stroke-width="1.5"></path><path d="M953.98 56L1092.38 -42.87" stroke="#132e65" stroke-width="1.5"></path><path d="M953.98 56L938.42 259.96" stroke="#132e65" stroke-width="1.5"></path><path d="M953.98 56L1158.46 64.28" stroke="#132e65" stroke-width="1.5"></path><path d="M938.42 259.96L938.42 259.96" stroke="#132e65" stroke-width="1.5"></path><path d="M938.42 259.96L973.06 373.86" stroke="#132e65" stroke-width="1.5"></path><path d="M938.42 259.96L1137.72 228.6" stroke="#132e65" stroke-width="1.5"></path><path d="M938.42 259.96L1099.75 396.43" stroke="#132e65" stroke-width="1.5"></path><path d="M973.06 373.86L973.06 373.86" stroke="#132e65" stroke-width="1.5"></path><path d="M973.06 373.86L1099.75 396.43" stroke="#132e65" stroke-width="1.5"></path><path d="M973.06 373.86L984.38 541.1" stroke="#132e65" stroke-width="1.5"></path><path d="M973.06 373.86L804.49 346.7" stroke="#132e65" stroke-width="1.5"></path><path d="M973.06 373.86L1137.72 228.6" stroke="#132e65" stroke-width="1.5"></path><path d="M984.38 541.1L984.38 541.1" stroke="#132e65" stroke-width="1.5"></path><path d="M984.38 541.1L1123.41 544.02" stroke="#132e65" stroke-width="1.5"></path><path d="M984.38 541.1L972.35 702.39" stroke="#132e65" stroke-width="1.5"></path><path d="M984.38 541.1L1099.75 396.43" stroke="#132e65" stroke-width="1.5"></path><path d="M984.38 541.1L797.84 507.56" stroke="#132e65" stroke-width="1.5"></path><path d="M984.38 541.1L1145.05 650" stroke="#132e65" stroke-width="1.5"></path><path d="M972.35 702.39L972.35 702.39" stroke="#132e65" stroke-width="1.5"></path><path d="M1092.38 -42.87L1092.38 -42.87" stroke="#132e65" stroke-width="1.5"></path><path d="M1092.38 -42.87L1158.46 64.28" stroke="#132e65" stroke-width="1.5"></path><path d="M1092.38 -42.87L1248.29 -105.3" stroke="#132e65" stroke-width="1.5"></path><path d="M1158.46 64.28L1158.46 64.28" stroke="#132e65" stroke-width="1.5"></path><path d="M1158.46 64.28L1240.74 41.25" stroke="#132e65" stroke-width="1.5"></path><path d="M1158.46 64.28L1137.72 228.6" stroke="#132e65" stroke-width="1.5"></path><path d="M1137.72 228.6L1137.72 228.6" stroke="#132e65" stroke-width="1.5"></path><path d="M1137.72 228.6L1266.49 205.98" stroke="#132e65" stroke-width="1.5"></path><path d="M1137.72 228.6L1099.75 396.43" stroke="#132e65" stroke-width="1.5"></path><path d="M1137.72 228.6L1267.62 364.14" stroke="#132e65" stroke-width="1.5"></path><path d="M1137.72 228.6L1240.74 41.25" stroke="#132e65" stroke-width="1.5"></path><path d="M1099.75 396.43L1099.75 396.43" stroke="#132e65" stroke-width="1.5"></path><path d="M1099.75 396.43L1123.41 544.02" stroke="#132e65" stroke-width="1.5"></path><path d="M1099.75 396.43L1267.62 364.14" stroke="#132e65" stroke-width="1.5"></path><path d="M1099.75 396.43L1239.89 523.13" stroke="#132e65" stroke-width="1.5"></path><path d="M1123.41 544.02L1123.41 544.02" stroke="#132e65" stroke-width="1.5"></path><path d="M1123.41 544.02L1145.05 650" stroke="#132e65" stroke-width="1.5"></path><path d="M1123.41 544.02L1239.89 523.13" stroke="#132e65" stroke-width="1.5"></path><path d="M1145.05 650L1145.05 650" stroke="#132e65" stroke-width="1.5"></path><path d="M1145.05 650L1266.54 707.68" stroke="#132e65" stroke-width="1.5"></path><path d="M1145.05 650L1239.89 523.13" stroke="#132e65" stroke-width="1.5"></path><path d="M1145.05 650L972.35 702.39" stroke="#132e65" stroke-width="1.5"></path><path d="M1248.29 -105.3L1248.29 -105.3" stroke="#132e65" stroke-width="1.5"></path><path d="M1248.29 -105.3L1240.74 41.25" stroke="#132e65" stroke-width="1.5"></path><path d="M1248.29 -105.3L1426.53 -61.98" stroke="#132e65" stroke-width="1.5"></path><path d="M1248.29 -105.3L1158.46 64.28" stroke="#132e65" stroke-width="1.5"></path><path d="M1248.29 -105.3L1446.64 56.65" stroke="#132e65" stroke-width="1.5"></path><path d="M1240.74 41.25L1240.74 41.25" stroke="#132e65" stroke-width="1.5"></path><path d="M1240.74 41.25L1266.49 205.98" stroke="#132e65" stroke-width="1.5"></path><path d="M1266.49 205.98L1266.49 205.98" stroke="#132e65" stroke-width="1.5"></path><path d="M1266.49 205.98L1267.62 364.14" stroke="#132e65" stroke-width="1.5"></path><path d="M1267.62 364.14L1267.62 364.14" stroke="#132e65" stroke-width="1.5"></path><path d="M1267.62 364.14L1422.76 376.42" stroke="#132e65" stroke-width="1.5"></path><path d="M1267.62 364.14L1239.89 523.13" stroke="#132e65" stroke-width="1.5"></path><path d="M1267.62 364.14L1392.75 527.41" stroke="#132e65" stroke-width="1.5"></path><path d="M1239.89 523.13L1239.89 523.13" stroke="#132e65" stroke-width="1.5"></path><path d="M1239.89 523.13L1392.75 527.41" stroke="#132e65" stroke-width="1.5"></path><path d="M1266.54 707.68L1266.54 707.68" stroke="#132e65" stroke-width="1.5"></path><path d="M1266.54 707.68L1441.78 645.86" stroke="#132e65" stroke-width="1.5"></path><path d="M1266.54 707.68L1239.89 523.13" stroke="#132e65" stroke-width="1.5"></path><path d="M1426.53 -61.98L1426.53 -61.98" stroke="#132e65" stroke-width="1.5"></path><path d="M1426.53 -61.98L1446.64 56.65" stroke="#132e65" stroke-width="1.5"></path><path d="M1426.53 -61.98L1583.79 -104.39" stroke="#132e65" stroke-width="1.5"></path><path d="M1426.53 -61.98L1562.13 88.31" stroke="#132e65" stroke-width="1.5"></path><path d="M1426.53 -61.98L1240.74 41.25" stroke="#132e65" stroke-width="1.5"></path><path d="M1446.64 56.65L1446.64 56.65" stroke="#132e65" stroke-width="1.5"></path><path d="M1446.64 56.65L1562.13 88.31" stroke="#132e65" stroke-width="1.5"></path><path d="M1446.64 56.65L1456.51 232.32" stroke="#132e65" stroke-width="1.5"></path><path d="M1456.51 232.32L1456.51 232.32" stroke="#132e65" stroke-width="1.5"></path><path d="M1456.51 232.32L1552.97 252.24" stroke="#132e65" stroke-width="1.5"></path><path d="M1456.51 232.32L1422.76 376.42" stroke="#132e65" stroke-width="1.5"></path><path d="M1456.51 232.32L1554.45 374.52" stroke="#132e65" stroke-width="1.5"></path><path d="M1456.51 232.32L1562.13 88.31" stroke="#132e65" stroke-width="1.5"></path><path d="M1422.76 376.42L1422.76 376.42" stroke="#132e65" stroke-width="1.5"></path><path d="M1422.76 376.42L1554.45 374.52" stroke="#132e65" stroke-width="1.5"></path><path d="M1422.76 376.42L1392.75 527.41" stroke="#132e65" stroke-width="1.5"></path><path d="M1422.76 376.42L1552.97 252.24" stroke="#132e65" stroke-width="1.5"></path><path d="M1392.75 527.41L1392.75 527.41" stroke="#132e65" stroke-width="1.5"></path><path d="M1392.75 527.41L1441.78 645.86" stroke="#132e65" stroke-width="1.5"></path><path d="M1392.75 527.41L1574.62 535.67" stroke="#132e65" stroke-width="1.5"></path><path d="M1441.78 645.86L1441.78 645.86" stroke="#132e65" stroke-width="1.5"></path><path d="M1441.78 645.86L1574.62 535.67" stroke="#132e65" stroke-width="1.5"></path><path d="M1441.78 645.86L1239.89 523.13" stroke="#132e65" stroke-width="1.5"></path><path d="M1441.78 645.86L1422.76 376.42" stroke="#132e65" stroke-width="1.5"></path><path d="M1583.79 -104.39L1583.79 -104.39" stroke="#132e65" stroke-width="1.5"></path><path d="M1583.79 -104.39L1562.13 88.31" stroke="#132e65" stroke-width="1.5"></path><path d="M1583.79 -104.39L1446.64 56.65" stroke="#132e65" stroke-width="1.5"></path><path d="M1583.79 -104.39L1248.29 -105.3" stroke="#132e65" stroke-width="1.5"></path><path d="M1583.79 -104.39L1552.97 252.24" stroke="#132e65" stroke-width="1.5"></path><path d="M1562.13 88.31L1562.13 88.31" stroke="#132e65" stroke-width="1.5"></path><path d="M1562.13 88.31L1552.97 252.24" stroke="#132e65" stroke-width="1.5"></path><path d="M1552.97 252.24L1552.97 252.24" stroke="#132e65" stroke-width="1.5"></path><path d="M1552.97 252.24L1554.45 374.52" stroke="#132e65" stroke-width="1.5"></path><path d="M1554.45 374.52L1554.45 374.52" stroke="#132e65" stroke-width="1.5"></path><path d="M1554.45 374.52L1574.62 535.67" stroke="#132e65" stroke-width="1.5"></path><path d="M1574.62 535.67L1574.62 535.67" stroke="#132e65" stroke-width="1.5"></path><path d="M1574.62 535.67L1422.76 376.42" stroke="#132e65" stroke-width="1.5"></path><path d="M1574.62 535.67L1552.97 252.24" stroke="#132e65" stroke-width="1.5"></path><circle r="5" cx="-101.46" cy="356.25" fill="#132e65"></circle><circle r="5" cx="-58.99" cy="487.78" fill="#132e65"></circle><circle r="5" cx="-63.5" cy="668.71" fill="#132e65"></circle><circle r="5" cx="74.08" cy="371.88" fill="#132e65"></circle><circle r="5" cx="55.53" cy="539.06" fill="#132e65"></circle><circle r="5" cx="39.83" cy="656.64" fill="#132e65"></circle><circle r="5" cx="196.77" cy="408.7" fill="#132e65"></circle><circle r="5" cx="192.37" cy="552.95" fill="#132e65"></circle><circle r="5" cx="259.94" cy="704.35" fill="#132e65"></circle><circle r="5" cx="338.94" cy="379.21" fill="#132e65"></circle><circle r="5" cx="394.27" cy="492.06" fill="#132e65"></circle><circle r="5" cx="339.87" cy="666.31" fill="#132e65"></circle><circle r="5" cx="548.77" cy="382.09" fill="#132e65"></circle><circle r="5" cx="508.61" cy="538.03" fill="#132e65"></circle><circle r="5" cx="541.7" cy="687.6" fill="#132e65"></circle><circle r="5" cx="690.78" cy="208.28" fill="#132e65"></circle><circle r="5" cx="700.23" cy="411.4" fill="#132e65"></circle><circle r="5" cx="638.67" cy="491.67" fill="#132e65"></circle><circle r="5" cx="666.02" cy="695.7" fill="#132e65"></circle><circle r="5" cx="804.49" cy="346.7" fill="#132e65"></circle><circle r="5" cx="797.84" cy="507.56" fill="#132e65"></circle><circle r="5" cx="853.15" cy="710.02" fill="#132e65"></circle><circle r="5" cx="953.98" cy="56" fill="#132e65"></circle><circle r="5" cx="938.42" cy="259.96" fill="#132e65"></circle><circle r="5" cx="973.06" cy="373.86" fill="#132e65"></circle><circle r="5" cx="984.38" cy="541.1" fill="#132e65"></circle><circle r="5" cx="972.35" cy="702.39" fill="#132e65"></circle><circle r="5" cx="1092.38" cy="-42.87" fill="#132e65"></circle><circle r="5" cx="1158.46" cy="64.28" fill="#132e65"></circle><circle r="5" cx="1137.72" cy="228.6" fill="#132e65"></circle><circle r="5" cx="1099.75" cy="396.43" fill="#132e65"></circle><circle r="5" cx="1123.41" cy="544.02" fill="#132e65"></circle><circle r="5" cx="1145.05" cy="650" fill="#132e65"></circle><circle r="5" cx="1248.29" cy="-105.3" fill="#132e65"></circle><circle r="5" cx="1240.74" cy="41.25" fill="#132e65"></circle><circle r="5" cx="1266.49" cy="205.98" fill="#132e65"></circle><circle r="5" cx="1267.62" cy="364.14" fill="#132e65"></circle><circle r="5" cx="1239.89" cy="523.13" fill="#132e65"></circle><circle r="5" cx="1266.54" cy="707.68" fill="#132e65"></circle><circle r="5" cx="1426.53" cy="-61.98" fill="#132e65"></circle><circle r="5" cx="1446.64" cy="56.65" fill="#132e65"></circle><circle r="5" cx="1456.51" cy="232.32" fill="#132e65"></circle><circle r="5" cx="1422.76" cy="376.42" fill="#132e65"></circle><circle r="5" cx="1392.75" cy="527.41" fill="#132e65"></circle><circle r="5" cx="1441.78" cy="645.86" fill="#132e65"></circle><circle r="5" cx="1583.79" cy="-104.39" fill="#132e65"></circle><circle r="5" cx="1562.13" cy="88.31" fill="#132e65"></circle><circle r="5" cx="1552.97" cy="252.24" fill="#132e65"></circle><circle r="5" cx="1554.45" cy="374.52" fill="#132e65"></circle><circle r="5" cx="1574.62" cy="535.67" fill="#132e65"></circle><path d="M-80.76 656.93L-80.76 656.93" stroke="hsl(228.5, 77.2%, 51.5%)" stroke-width="1.5"></path><path d="M-80.76 656.93L49.7 669.07" stroke="hsl(228.5, 77.2%, 51.5%)" stroke-width="1.5"></path><path d="M-80.76 656.93L-107.52 499.56" stroke="hsl(228.5, 77.2%, 51.5%)" stroke-width="1.5"></path><path d="M529.64 499.1L529.64 499.1" stroke="hsl(228.5, 77.2%, 51.5%)" stroke-width="1.5"></path><path d="M529.64 499.1L530.93 643.15" stroke="hsl(228.5, 77.2%, 51.5%)" stroke-width="1.5"></path><path d="M529.64 499.1L697.47 530.26" stroke="hsl(228.5, 77.2%, 51.5%)" stroke-width="1.5"></path><path d="M529.64 499.1L710.55 378.25" stroke="hsl(228.5, 77.2%, 51.5%)" stroke-width="1.5"></path><path d="M801.95 503.09L801.95 503.09" stroke="hsl(228.5, 77.2%, 51.5%)" stroke-width="1.5"></path><path d="M801.95 503.09L697.47 530.26" stroke="hsl(228.5, 77.2%, 51.5%)" stroke-width="1.5"></path><path d="M801.95 503.09L812.55 380.9" stroke="hsl(228.5, 77.2%, 51.5%)" stroke-width="1.5"></path><path d="M999.17 351.79L999.17 351.79" stroke="hsl(228.5, 77.2%, 51.5%)" stroke-width="1.5"></path><path d="M999.17 351.79L1090.83 410.43" stroke="hsl(228.5, 77.2%, 51.5%)" stroke-width="1.5"></path><path d="M999.17 351.79L1004.91 497.55" stroke="hsl(228.5, 77.2%, 51.5%)" stroke-width="1.5"></path><path d="M999.17 351.79L1117.77 259.29" stroke="hsl(228.5, 77.2%, 51.5%)" stroke-width="1.5"></path><path d="M999.17 351.79L812.55 380.9" stroke="hsl(228.5, 77.2%, 51.5%)" stroke-width="1.5"></path><path d="M999.17 351.79L1137.48 489.53" stroke="hsl(228.5, 77.2%, 51.5%)" stroke-width="1.5"></path><path d="M999.17 351.79L801.95 503.09" stroke="hsl(228.5, 77.2%, 51.5%)" stroke-width="1.5"></path><path d="M1090.83 410.43L1090.83 410.43" stroke="hsl(228.5, 77.2%, 51.5%)" stroke-width="1.5"></path><path d="M1090.83 410.43L1137.48 489.53" stroke="hsl(228.5, 77.2%, 51.5%)" stroke-width="1.5"></path><path d="M1123.31 704.7L1123.31 704.7" stroke="hsl(228.5, 77.2%, 51.5%)" stroke-width="1.5"></path><path d="M1123.31 704.7L1242.76 677.03" stroke="hsl(228.5, 77.2%, 51.5%)" stroke-width="1.5"></path><path d="M1123.31 704.7L1245.16 549.75" stroke="hsl(228.5, 77.2%, 51.5%)" stroke-width="1.5"></path><path d="M1123.31 704.7L1137.48 489.53" stroke="hsl(228.5, 77.2%, 51.5%)" stroke-width="1.5"></path><path d="M1123.31 704.7L1004.91 497.55" stroke="hsl(228.5, 77.2%, 51.5%)" stroke-width="1.5"></path><path d="M1123.31 704.7L1090.83 410.43" stroke="hsl(228.5, 77.2%, 51.5%)" stroke-width="1.5"></path><path d="M1123.31 704.7L1431.38 711.44" stroke="hsl(228.5, 77.2%, 51.5%)" stroke-width="1.5"></path><path d="M1245.16 549.75L1245.16 549.75" stroke="hsl(228.5, 77.2%, 51.5%)" stroke-width="1.5"></path><path d="M1245.16 549.75L1137.48 489.53" stroke="hsl(228.5, 77.2%, 51.5%)" stroke-width="1.5"></path><path d="M1245.16 549.75L1242.76 677.03" stroke="hsl(228.5, 77.2%, 51.5%)" stroke-width="1.5"></path><path d="M1245.16 549.75L1408.39 543.12" stroke="hsl(228.5, 77.2%, 51.5%)" stroke-width="1.5"></path><path d="M1245.16 549.75L1265.53 358.96" stroke="hsl(228.5, 77.2%, 51.5%)" stroke-width="1.5"></path><path d="M1245.16 549.75L1090.83 410.43" stroke="hsl(228.5, 77.2%, 51.5%)" stroke-width="1.5"></path><path d="M1242.76 677.03L1242.76 677.03" stroke="hsl(228.5, 77.2%, 51.5%)" stroke-width="1.5"></path><path d="M1242.76 677.03L1431.38 711.44" stroke="hsl(228.5, 77.2%, 51.5%)" stroke-width="1.5"></path><path d="M1242.76 677.03L1408.39 543.12" stroke="hsl(228.5, 77.2%, 51.5%)" stroke-width="1.5"></path><path d="M1242.76 677.03L1137.48 489.53" stroke="hsl(228.5, 77.2%, 51.5%)" stroke-width="1.5"></path><path d="M1242.76 677.03L1004.91 497.55" stroke="hsl(228.5, 77.2%, 51.5%)" stroke-width="1.5"></path><path d="M1419.12 -62.61L1419.12 -62.61" stroke="hsl(228.5, 77.2%, 51.5%)" stroke-width="1.5"></path><path d="M1419.12 -62.61L1437.81 39.08" stroke="hsl(228.5, 77.2%, 51.5%)" stroke-width="1.5"></path><path d="M1419.12 -62.61L1265.57 -81.66" stroke="hsl(228.5, 77.2%, 51.5%)" stroke-width="1.5"></path><path d="M1419.12 -62.61L1582.92 -85.96" stroke="hsl(228.5, 77.2%, 51.5%)" stroke-width="1.5"></path><path d="M1419.12 -62.61L1547.81 82.46" stroke="hsl(228.5, 77.2%, 51.5%)" stroke-width="1.5"></path><path d="M1436.78 357.83L1436.78 357.83" stroke="hsl(228.5, 77.2%, 51.5%)" stroke-width="1.5"></path><path d="M1436.78 357.83L1433.77 241.85" stroke="hsl(228.5, 77.2%, 51.5%)" stroke-width="1.5"></path><path d="M1436.78 357.83L1542 250.73" stroke="hsl(228.5, 77.2%, 51.5%)" stroke-width="1.5"></path><path d="M1436.78 357.83L1302.33 257.06" stroke="hsl(228.5, 77.2%, 51.5%)" stroke-width="1.5"></path><path d="M1436.78 357.83L1265.53 358.96" stroke="hsl(228.5, 77.2%, 51.5%)" stroke-width="1.5"></path><path d="M1582.92 -85.96L1582.92 -85.96" stroke="hsl(228.5, 77.2%, 51.5%)" stroke-width="1.5"></path><path d="M1582.92 -85.96L1547.81 82.46" stroke="hsl(228.5, 77.2%, 51.5%)" stroke-width="1.5"></path><path d="M1582.92 -85.96L1437.81 39.08" stroke="hsl(228.5, 77.2%, 51.5%)" stroke-width="1.5"></path><path d="M-107.52 499.56L-107.52 499.56" stroke="hsl(228.5, 77.2%, 51.5%)" stroke-width="1.5"></path><path d="M-107.52 499.56L45.41 557.94" stroke="hsl(228.5, 77.2%, 51.5%)" stroke-width="1.5"></path><path d="M-107.52 499.56L49.7 669.07" stroke="hsl(228.5, 77.2%, 51.5%)" stroke-width="1.5"></path><path d="M-107.52 499.56L233.99 549.55" stroke="hsl(228.5, 77.2%, 51.5%)" stroke-width="1.5"></path><path d="M-107.52 499.56L213.34 697.58" stroke="hsl(228.5, 77.2%, 51.5%)" stroke-width="1.5"></path><path d="M45.41 557.94L45.41 557.94" stroke="hsl(228.5, 77.2%, 51.5%)" stroke-width="1.5"></path><path d="M45.41 557.94L49.7 669.07" stroke="hsl(228.5, 77.2%, 51.5%)" stroke-width="1.5"></path><path d="M45.41 557.94L-80.76 656.93" stroke="hsl(228.5, 77.2%, 51.5%)" stroke-width="1.5"></path><path d="M45.41 557.94L233.99 549.55" stroke="hsl(228.5, 77.2%, 51.5%)" stroke-width="1.5"></path><path d="M49.7 669.07L49.7 669.07" stroke="hsl(228.5, 77.2%, 51.5%)" stroke-width="1.5"></path><path d="M49.7 669.07L213.34 697.58" stroke="hsl(228.5, 77.2%, 51.5%)" stroke-width="1.5"></path><path d="M49.7 669.07L233.99 549.55" stroke="hsl(228.5, 77.2%, 51.5%)" stroke-width="1.5"></path><path d="M233.99 549.55L233.99 549.55" stroke="hsl(228.5, 77.2%, 51.5%)" stroke-width="1.5"></path><path d="M233.99 549.55L213.34 697.58" stroke="hsl(228.5, 77.2%, 51.5%)" stroke-width="1.5"></path><path d="M233.99 549.55L529.64 499.1" stroke="hsl(228.5, 77.2%, 51.5%)" stroke-width="1.5"></path><path d="M233.99 549.55L530.93 643.15" stroke="hsl(228.5, 77.2%, 51.5%)" stroke-width="1.5"></path><path d="M213.34 697.58L213.34 697.58" stroke="hsl(228.5, 77.2%, 51.5%)" stroke-width="1.5"></path><path d="M213.34 697.58L45.41 557.94" stroke="hsl(228.5, 77.2%, 51.5%)" stroke-width="1.5"></path><path d="M530.93 643.15L530.93 643.15" stroke="hsl(228.5, 77.2%, 51.5%)" stroke-width="1.5"></path><path d="M530.93 643.15L643.28 701.12" stroke="hsl(228.5, 77.2%, 51.5%)" stroke-width="1.5"></path><path d="M530.93 643.15L697.47 530.26" stroke="hsl(228.5, 77.2%, 51.5%)" stroke-width="1.5"></path><path d="M530.93 643.15L797.29 668.89" stroke="hsl(228.5, 77.2%, 51.5%)" stroke-width="1.5"></path><path d="M710.55 378.25L710.55 378.25" stroke="hsl(228.5, 77.2%, 51.5%)" stroke-width="1.5"></path><path d="M710.55 378.25L812.55 380.9" stroke="hsl(228.5, 77.2%, 51.5%)" stroke-width="1.5"></path><path d="M710.55 378.25L697.47 530.26" stroke="hsl(228.5, 77.2%, 51.5%)" stroke-width="1.5"></path><path d="M697.47 530.26L697.47 530.26" stroke="hsl(228.5, 77.2%, 51.5%)" stroke-width="1.5"></path><path d="M697.47 530.26L797.29 668.89" stroke="hsl(228.5, 77.2%, 51.5%)" stroke-width="1.5"></path><path d="M643.28 701.12L643.28 701.12" stroke="hsl(228.5, 77.2%, 51.5%)" stroke-width="1.5"></path><path d="M643.28 701.12L797.29 668.89" stroke="hsl(228.5, 77.2%, 51.5%)" stroke-width="1.5"></path><path d="M812.55 380.9L812.55 380.9" stroke="hsl(228.5, 77.2%, 51.5%)" stroke-width="1.5"></path><path d="M797.29 668.89L797.29 668.89" stroke="hsl(228.5, 77.2%, 51.5%)" stroke-width="1.5"></path><path d="M797.29 668.89L801.95 503.09" stroke="hsl(228.5, 77.2%, 51.5%)" stroke-width="1.5"></path><path d="M797.29 668.89L1004.91 497.55" stroke="hsl(228.5, 77.2%, 51.5%)" stroke-width="1.5"></path><path d="M797.29 668.89L812.55 380.9" stroke="hsl(228.5, 77.2%, 51.5%)" stroke-width="1.5"></path><path d="M1004.91 497.55L1004.91 497.55" stroke="hsl(228.5, 77.2%, 51.5%)" stroke-width="1.5"></path><path d="M1004.91 497.55L1090.83 410.43" stroke="hsl(228.5, 77.2%, 51.5%)" stroke-width="1.5"></path><path d="M1004.91 497.55L1137.48 489.53" stroke="hsl(228.5, 77.2%, 51.5%)" stroke-width="1.5"></path><path d="M1004.91 497.55L801.95 503.09" stroke="hsl(228.5, 77.2%, 51.5%)" stroke-width="1.5"></path><path d="M1117.77 259.29L1117.77 259.29" stroke="hsl(228.5, 77.2%, 51.5%)" stroke-width="1.5"></path><path d="M1117.77 259.29L1090.83 410.43" stroke="hsl(228.5, 77.2%, 51.5%)" stroke-width="1.5"></path><path d="M1117.77 259.29L1265.53 358.96" stroke="hsl(228.5, 77.2%, 51.5%)" stroke-width="1.5"></path><path d="M1117.77 259.29L1302.33 257.06" stroke="hsl(228.5, 77.2%, 51.5%)" stroke-width="1.5"></path><path d="M1137.48 489.53L1137.48 489.53" stroke="hsl(228.5, 77.2%, 51.5%)" stroke-width="1.5"></path><path d="M1137.48 489.53L1265.53 358.96" stroke="hsl(228.5, 77.2%, 51.5%)" stroke-width="1.5"></path><path d="M1265.57 -81.66L1265.57 -81.66" stroke="hsl(228.5, 77.2%, 51.5%)" stroke-width="1.5"></path><path d="M1265.57 -81.66L1285.61 107.32" stroke="hsl(228.5, 77.2%, 51.5%)" stroke-width="1.5"></path><path d="M1265.57 -81.66L1437.81 39.08" stroke="hsl(228.5, 77.2%, 51.5%)" stroke-width="1.5"></path><path d="M1285.61 107.32L1285.61 107.32" stroke="hsl(228.5, 77.2%, 51.5%)" stroke-width="1.5"></path><path d="M1285.61 107.32L1302.33 257.06" stroke="hsl(228.5, 77.2%, 51.5%)" stroke-width="1.5"></path><path d="M1285.61 107.32L1437.81 39.08" stroke="hsl(228.5, 77.2%, 51.5%)" stroke-width="1.5"></path><path d="M1302.33 257.06L1302.33 257.06" stroke="hsl(228.5, 77.2%, 51.5%)" stroke-width="1.5"></path><path d="M1302.33 257.06L1265.53 358.96" stroke="hsl(228.5, 77.2%, 51.5%)" stroke-width="1.5"></path><path d="M1302.33 257.06L1433.77 241.85" stroke="hsl(228.5, 77.2%, 51.5%)" stroke-width="1.5"></path><path d="M1265.53 358.96L1265.53 358.96" stroke="hsl(228.5, 77.2%, 51.5%)" stroke-width="1.5"></path><path d="M1265.53 358.96L1090.83 410.43" stroke="hsl(228.5, 77.2%, 51.5%)" stroke-width="1.5"></path><path d="M1437.81 39.08L1437.81 39.08" stroke="hsl(228.5, 77.2%, 51.5%)" stroke-width="1.5"></path><path d="M1437.81 39.08L1547.81 82.46" stroke="hsl(228.5, 77.2%, 51.5%)" stroke-width="1.5"></path><path d="M1433.77 241.85L1433.77 241.85" stroke="hsl(228.5, 77.2%, 51.5%)" stroke-width="1.5"></path><path d="M1433.77 241.85L1542 250.73" stroke="hsl(228.5, 77.2%, 51.5%)" stroke-width="1.5"></path><path d="M1433.77 241.85L1547.81 82.46" stroke="hsl(228.5, 77.2%, 51.5%)" stroke-width="1.5"></path><path d="M1433.77 241.85L1285.61 107.32" stroke="hsl(228.5, 77.2%, 51.5%)" stroke-width="1.5"></path><path d="M1433.77 241.85L1437.81 39.08" stroke="hsl(228.5, 77.2%, 51.5%)" stroke-width="1.5"></path><path d="M1408.39 543.12L1408.39 543.12" stroke="hsl(228.5, 77.2%, 51.5%)" stroke-width="1.5"></path><path d="M1408.39 543.12L1565.84 531.85" stroke="hsl(228.5, 77.2%, 51.5%)" stroke-width="1.5"></path><path d="M1408.39 543.12L1431.38 711.44" stroke="hsl(228.5, 77.2%, 51.5%)" stroke-width="1.5"></path><path d="M1431.38 711.44L1431.38 711.44" stroke="hsl(228.5, 77.2%, 51.5%)" stroke-width="1.5"></path><path d="M1431.38 711.44L1606.17 681.53" stroke="hsl(228.5, 77.2%, 51.5%)" stroke-width="1.5"></path><path d="M1431.38 711.44L1565.84 531.85" stroke="hsl(228.5, 77.2%, 51.5%)" stroke-width="1.5"></path><path d="M1431.38 711.44L1245.16 549.75" stroke="hsl(228.5, 77.2%, 51.5%)" stroke-width="1.5"></path><path d="M1547.81 82.46L1547.81 82.46" stroke="hsl(228.5, 77.2%, 51.5%)" stroke-width="1.5"></path><path d="M1547.81 82.46L1542 250.73" stroke="hsl(228.5, 77.2%, 51.5%)" stroke-width="1.5"></path><path d="M1542 250.73L1542 250.73" stroke="hsl(228.5, 77.2%, 51.5%)" stroke-width="1.5"></path><path d="M1565.84 531.85L1565.84 531.85" stroke="hsl(228.5, 77.2%, 51.5%)" stroke-width="1.5"></path><path d="M1565.84 531.85L1606.17 681.53" stroke="hsl(228.5, 77.2%, 51.5%)" stroke-width="1.5"></path><path d="M1565.84 531.85L1436.78 357.83" stroke="hsl(228.5, 77.2%, 51.5%)" stroke-width="1.5"></path><path d="M1565.84 531.85L1542 250.73" stroke="hsl(228.5, 77.2%, 51.5%)" stroke-width="1.5"></path><path d="M1606.17 681.53L1606.17 681.53" stroke="hsl(228.5, 77.2%, 51.5%)" stroke-width="1.5"></path><path d="M1606.17 681.53L1408.39 543.12" stroke="hsl(228.5, 77.2%, 51.5%)" stroke-width="1.5"></path><path d="M1606.17 681.53L1242.76 677.03" stroke="hsl(228.5, 77.2%, 51.5%)" stroke-width="1.5"></path><path d="M1606.17 681.53L1436.78 357.83" stroke="hsl(228.5, 77.2%, 51.5%)" stroke-width="1.5"></path><circle r="25" cx="-80.76" cy="656.93" fill="url(#SvgjsRadialGradient2074)"></circle><circle r="25" cx="529.64" cy="499.1" fill="url(#SvgjsRadialGradient2074)"></circle><circle r="25" cx="801.95" cy="503.09" fill="url(#SvgjsRadialGradient2074)"></circle><circle r="25" cx="999.17" cy="351.79" fill="url(#SvgjsRadialGradient2074)"></circle><circle r="25" cx="1090.83" cy="410.43" fill="url(#SvgjsRadialGradient2074)"></circle><circle r="25" cx="1123.31" cy="704.7" fill="url(#SvgjsRadialGradient2074)"></circle><circle r="25" cx="1245.16" cy="549.75" fill="url(#SvgjsRadialGradient2074)"></circle><circle r="25" cx="1242.76" cy="677.03" fill="url(#SvgjsRadialGradient2074)"></circle><circle r="25" cx="1419.12" cy="-62.61" fill="url(#SvgjsRadialGradient2074)"></circle><circle r="25" cx="1436.78" cy="357.83" fill="url(#SvgjsRadialGradient2074)"></circle><circle r="25" cx="1582.92" cy="-85.96" fill="url(#SvgjsRadialGradient2074)"></circle><circle r="5" cx="-107.52" cy="499.56" fill="#8b9ad9"></circle><circle r="5" cx="45.41" cy="557.94" fill="#8b9ad9"></circle><circle r="5" cx="49.7" cy="669.07" fill="#8b9ad9"></circle><circle r="5" cx="233.99" cy="549.55" fill="#8b9ad9"></circle><circle r="5" cx="213.34" cy="697.58" fill="#8b9ad9"></circle><circle r="5" cx="530.93" cy="643.15" fill="#8b9ad9"></circle><circle r="5" cx="710.55" cy="378.25" fill="#8b9ad9"></circle><circle r="5" cx="697.47" cy="530.26" fill="#8b9ad9"></circle><circle r="5" cx="643.28" cy="701.12" fill="#8b9ad9"></circle><circle r="5" cx="812.55" cy="380.9" fill="#8b9ad9"></circle><circle r="5" cx="797.29" cy="668.89" fill="#8b9ad9"></circle><circle r="5" cx="1004.91" cy="497.55" fill="#8b9ad9"></circle><circle r="5" cx="1117.77" cy="259.29" fill="#8b9ad9"></circle><circle r="5" cx="1137.48" cy="489.53" fill="#8b9ad9"></circle><circle r="5" cx="1265.57" cy="-81.66" fill="#8b9ad9"></circle><circle r="5" cx="1285.61" cy="107.32" fill="#8b9ad9"></circle><circle r="5" cx="1302.33" cy="257.06" fill="#8b9ad9"></circle><circle r="5" cx="1265.53" cy="358.96" fill="#8b9ad9"></circle><circle r="5" cx="1437.81" cy="39.08" fill="#8b9ad9"></circle><circle r="5" cx="1433.77" cy="241.85" fill="#8b9ad9"></circle><circle r="5" cx="1408.39" cy="543.12" fill="#8b9ad9"></circle><circle r="5" cx="1431.38" cy="711.44" fill="#8b9ad9"></circle><circle r="5" cx="1547.81" cy="82.46" fill="#8b9ad9"></circle><circle r="5" cx="1542" cy="250.73" fill="#8b9ad9"></circle><circle r="5" cx="1565.84" cy="531.85" fill="#8b9ad9"></circle><circle r="5" cx="1606.17" cy="681.53" fill="#8b9ad9"></circle></g><defs><mask id="SvgjsMask2072"><rect width="1440" height="560" fill="#ffffff"></rect></mask><linearGradient x1="15.28%" y1="-39.29%" x2="84.72%" y2="139.29%" gradientUnits="userSpaceOnUse" id="SvgjsLinearGradient2073"><stop stop-color="#0e2a47" offset="0"></stop><stop stop-color="rgba(0, 0, 0, 1)" offset="1"></stop></linearGradient><radialGradient id="SvgjsRadialGradient2074"><stop stop-color="#ffffff" offset="0.1"></stop><stop stop-color="#1735b3" offset="0.2"></stop><stop stop-color="rgba(23, 53, 179, 0)" offset="1"></stop></radialGradient></defs></svg>